# xmcd
#
# Track frame offsets:
#	150
#	36211
#	55184
#	77189
#	94698
#	125103
#	147843
#	164687
#	189934
#	211318
#	245896
#	268062
#	285328
#
# Disc length: 4394 seconds
#
# Revision: 15
# Processed by: cddbd v1.5.2PL0 Copyright (c) Steve Scherf et al.
# Submitted via: EasyCDDAExtractor 15.3.0.1
#
DISCID=c211280d
DTITLE=Madonna - The Confessions Tour
DYEAR=2007
DGENRE=Pop
TTITLE0=Future Lovers, I Feel Love
TTITLE1=Like A Virgin
TTITLE2=Jump
TTITLE3=Confessions
TTITLE4=Isaac
TTITLE5=Sorry
TTITLE6=Sorry (Remix)
TTITLE7=I Love New York
TTITLE8=Let It Will Be
TTITLE9=Music Inferno
TTITLE10=Erotica
TTITLE11=Lucky Star
TTITLE12=Hung Up
EXTD=
EXTT0=
EXTT1=
EXTT2=
EXTT3=
EXTT4=
EXTT5=
EXTT6=
EXTT7=
EXTT8=
EXTT9=
EXTT10=
EXTT11=
EXTT12=
PLAYORDER=
